<?xml version="1.0" encoding="UTF-8" standalone="no"?>
<!DOCTYPE svg PUBLIC "-//W3C//DTD SVG 1.1//EN"
 "http://www.w3.org/Graphics/SVG/1.1/DTD/svg11.dtd">
<!-- Generated by graphviz version 2.26.3 (20100126.1600)
 -->
<!-- Title: G Pages: 1 -->
<svg width="905pt" height="628pt"
 viewBox="0.00 0.00 905.00 628.00" xmlns="http://www.w3.org/2000/svg" xmlns:xlink="http://www.w3.org/1999/xlink">
<g id="graph1" class="graph" transform="scale(1 1) rotate(0) translate(4 624)">
<title>G</title>
<polygon fill="white" stroke="white" points="-4,5 -4,-624 902,-624 902,5 -4,5"/>
<g id="graph2" class="cluster"><title>cluster_e</title>
<polygon fill="none" stroke="black" points="8,-8 8,-612 240,-612 240,-8 8,-8"/>
<text text-anchor="middle" x="124" y="-591.8" font-family="Verdana" font-size="18.00">External Data</text>
</g>
<g id="graph3" class="cluster"><title>cluster_p</title>
<polygon fill="none" stroke="blue" points="332,-8 332,-612 565,-612 565,-8 332,-8"/>
<text text-anchor="middle" x="448.5" y="-591.8" font-family="Verdana" font-size="18.00">Processed Data Products</text>
</g>
<g id="graph4" class="cluster"><title>cluster_w</title>
<polygon fill="none" stroke="green" points="657,-8 657,-612 889,-612 889,-8 657,-8"/>
<text text-anchor="middle" x="773" y="-591.8" font-family="Verdana" font-size="18.00">Web Applications</text>
</g>
<!-- rms -->
<g id="node2" class="node"><title>rms</title>
<polygon fill="lightgrey" stroke="black" points="16,-538 16,-574 232,-574 232,-538 16,-538"/>
<text text-anchor="middle" x="124" y="-552.7" font-family="Verdana" font-size="12.00">Raw RMS Data</text>
</g>
<!-- ramp_perf -->
<g id="node13" class="node"><title>ramp_perf</title>
<polygon fill="lightgrey" stroke="black" points="340,-538 340,-574 556,-574 556,-538 340,-538"/>
<text text-anchor="middle" x="448" y="-552.7" font-family="Verdana" font-size="12.00">Ramp Performance Data</text>
</g>
<!-- rms&#45;&gt;ramp_perf -->
<!-- slide:2 -->
<g id="edge5" class="edge"><title>rms:e&#45;&gt;ramp_perf:w</title>
<path fill="none" stroke="black" d="M232,-556C232,-556 302.613,-556 329.645,-556"/>
<polygon fill="black" stroke="black" points="330,-559.5 340,-556 330,-552.5 330,-559.5"/>
</g>
<!-- loop -->
<g id="node3" class="node"><title>loop</title>
<polygon fill="lightgrey" stroke="black" points="16,-480 16,-516 232,-516 232,-480 16,-480"/>
<text text-anchor="middle" x="124" y="-494.7" font-family="Verdana" font-size="12.00">Raw Loop Data</text>
</g>
<!-- loop&#45;&gt;ramp_perf -->
<!-- slide:2 -->
<g id="edge7" class="edge"><title>loop:e&#45;&gt;ramp_perf:w</title>
<path fill="none" stroke="black" d="M232,-498C232,-498 305.368,-537.402 331.162,-551.254"/>
<polygon fill="black" stroke="black" points="329.534,-554.352 340,-556 332.846,-548.185 329.534,-554.352"/>
</g>
<!-- sec -->
<g id="node14" class="node"><title>sec</title>
<polygon fill="lightgrey" stroke="black" points="340,-480 340,-516 556,-516 556,-480 340,-480"/>
<text text-anchor="middle" x="448" y="-494.7" font-family="Verdana" font-size="12.00">Processed Section Data</text>
</g>
<!-- loop&#45;&gt;sec -->
<!-- slide:3 -->
<g id="edge11" class="edge"><title>loop:e&#45;&gt;sec:w</title>
<path fill="none" stroke="black" d="M232,-498C232,-498 302.613,-498 329.645,-498"/>
<polygon fill="black" stroke="black" points="330,-501.5 340,-498 330,-494.5 330,-501.5"/>
</g>
<!-- sec_time -->
<g id="node19" class="node"><title>sec_time</title>
<polygon fill="lightgrey" stroke="black" points="340,-190 340,-226 556,-226 556,-190 340,-190"/>
<text text-anchor="middle" x="448" y="-204.7" font-family="Verdana" font-size="12.00">Enhanced Section Timeseries</text>
</g>
<!-- loop&#45;&gt;sec_time -->
<!-- slide:6 -->
<g id="edge34" class="edge"><title>loop:e&#45;&gt;sec_time:w</title>
<path fill="none" stroke="black" d="M232,-498C232,-498 317.667,-267.968 336.407,-217.649"/>
<polygon fill="black" stroke="black" points="339.79,-218.593 340,-208 333.23,-216.15 339.79,-218.593"/>
</g>
<!-- actlog -->
<g id="node4" class="node"><title>actlog</title>
<polygon fill="lightgrey" stroke="black" points="16,-422 16,-458 232,-458 232,-422 16,-422"/>
<text text-anchor="middle" x="124" y="-436.7" font-family="Verdana" font-size="12.00">TMC Activity Logs</text>
</g>
<!-- inc -->
<g id="node15" class="node"><title>inc</title>
<polygon fill="lightgrey" stroke="black" points="340,-422 340,-458 556,-458 556,-422 340,-422"/>
<text text-anchor="middle" x="448" y="-436.7" font-family="Verdana" font-size="12.00">Incident Identification</text>
</g>
<!-- actlog&#45;&gt;inc -->
<!-- slide:4 -->
<g id="edge17" class="edge"><title>actlog:e&#45;&gt;inc:w</title>
<path fill="none" stroke="black" d="M232,-440C232,-440 302.613,-440 329.645,-440"/>
<polygon fill="black" stroke="black" points="330,-443.5 340,-440 330,-436.5 330,-443.5"/>
</g>
<!-- icad -->
<g id="node5" class="node"><title>icad</title>
<polygon fill="lightgrey" stroke="black" points="16,-364 16,-400 232,-400 232,-364 16,-364"/>
<text text-anchor="middle" x="124" y="-378.7" font-family="Verdana" font-size="12.00">CHP iCad Logs</text>
</g>
<!-- icad&#45;&gt;inc -->
<!-- slide:4 -->
<g id="edge19" class="edge"><title>icad:e&#45;&gt;inc:w</title>
<path fill="none" stroke="black" d="M232,-382C232,-382 305.368,-421.402 331.162,-435.254"/>
<polygon fill="black" stroke="black" points="329.534,-438.352 340,-440 332.846,-432.185 329.534,-438.352"/>
</g>
<!-- pems -->
<g id="node6" class="node"><title>pems</title>
<polygon fill="lightgrey" stroke="black" points="16,-306 16,-342 232,-342 232,-306 16,-306"/>
<text text-anchor="middle" x="124" y="-320.7" font-family="Verdana" font-size="12.00">Processed Loop Data (PeMS)</text>
</g>
<!-- inc_delay -->
<g id="node16" class="node"><title>inc_delay</title>
<polygon fill="lightgrey" stroke="black" points="340,-364 340,-400 556,-400 556,-364 340,-364"/>
<text text-anchor="middle" x="448" y="-378.7" font-family="Verdana" font-size="12.00">Incident Delay Estimates</text>
</g>
<!-- pems&#45;&gt;inc_delay -->
<!-- slide:4 -->
<g id="edge21" class="edge"><title>pems:e&#45;&gt;inc_delay:w</title>
<path fill="none" stroke="black" d="M232,-324C232,-324 305.368,-363.402 331.162,-377.254"/>
<polygon fill="black" stroke="black" points="329.534,-380.352 340,-382 332.846,-374.185 329.534,-380.352"/>
</g>
<!-- tmc_impact -->
<g id="node17" class="node"><title>tmc_impact</title>
<polygon fill="lightgrey" stroke="black" points="340,-306 340,-342 556,-342 556,-306 340,-306"/>
<text text-anchor="middle" x="448" y="-320.7" font-family="Verdana" font-size="12.00">TMC Impact Estimates</text>
</g>
<!-- pems&#45;&gt;tmc_impact -->
<!-- slide:4 -->
<g id="edge27" class="edge"><title>pems:e&#45;&gt;tmc_impact:w</title>
<path fill="none" stroke="black" d="M232,-324C232,-324 302.613,-324 329.645,-324"/>
<polygon fill="black" stroke="black" points="330,-327.5 340,-324 330,-320.5 330,-327.5"/>
</g>
<!-- hdt_vmt -->
<g id="node21" class="node"><title>hdt_vmt</title>
<polygon fill="lightgrey" stroke="black" points="340,-74 340,-110 556,-110 556,-74 340,-74"/>
<text text-anchor="middle" x="448" y="-88.7" font-family="Verdana" font-size="12.00">Statewide HDT VMT</text>
</g>
<!-- pems&#45;&gt;hdt_vmt -->
<!-- slide:7 -->
<g id="edge42" class="edge"><title>pems:e&#45;&gt;hdt_vmt:w</title>
<path fill="none" stroke="black" d="M232,-324C232,-324 315.799,-143.988 335.766,-101.095"/>
<polygon fill="black" stroke="black" points="338.953,-102.543 340,-92 332.607,-99.5887 338.953,-102.543"/>
</g>
<!-- sigs -->
<g id="node7" class="node"><title>sigs</title>
<polygon fill="lightgrey" stroke="black" points="16,-248 16,-284 232,-284 232,-248 16,-248"/>
<text text-anchor="middle" x="124" y="-262.7" font-family="Verdana" font-size="12.00">Inductive Signature Data</text>
</g>
<!-- sec_perf -->
<g id="node18" class="node"><title>sec_perf</title>
<polygon fill="lightgrey" stroke="black" points="340,-248 340,-284 556,-284 556,-248 340,-248"/>
<text text-anchor="middle" x="448" y="-262.7" font-family="Verdana" font-size="12.00">Section Performance</text>
</g>
<!-- sigs&#45;&gt;sec_perf -->
<!-- slide:5 -->
<g id="edge31" class="edge"><title>sigs&#45;&gt;sec_perf</title>
<path fill="none" stroke="black" d="M232.338,-266C263.545,-266 297.748,-266 329.536,-266"/>
<polygon fill="black" stroke="black" points="329.764,-269.5 339.764,-266 329.764,-262.5 329.764,-269.5"/>
</g>
<!-- i3 -->
<g id="node8" class="node"><title>i3</title>
</g>
<!-- accident -->
<g id="node9" class="node"><title>accident</title>
<polygon fill="lightgrey" stroke="black" points="16,-132 16,-168 232,-168 232,-132 16,-132"/>
<text text-anchor="middle" x="124" y="-146.7" font-family="Verdana" font-size="12.00">Accident Data (TASAS)</text>
</g>
<!-- risk -->
<g id="node20" class="node"><title>risk</title>
<polygon fill="lightgrey" stroke="black" points="340,-132 340,-168 556,-168 556,-132 340,-132"/>
<text text-anchor="middle" x="448" y="-146.7" font-family="Verdana" font-size="12.00">Relative Risk Probabilities</text>
</g>
<!-- accident&#45;&gt;risk -->
<!-- slide:6 -->
<g id="edge38" class="edge"><title>accident:e&#45;&gt;risk:w</title>
<path fill="none" stroke="black" d="M232,-150C232,-150 302.613,-150 329.645,-150"/>
<polygon fill="black" stroke="black" points="330,-153.5 340,-150 330,-146.5 330,-153.5"/>
</g>
<!-- wim -->
<g id="node10" class="node"><title>wim</title>
<polygon fill="lightgrey" stroke="black" points="16,-74 16,-110 232,-110 232,-74 16,-74"/>
<text text-anchor="middle" x="124" y="-88.7" font-family="Verdana" font-size="12.00">Weigh&#45;in&#45;Motion (WIM)</text>
</g>
<!-- wim&#45;&gt;hdt_vmt -->
<!-- slide:7 -->
<g id="edge46" class="edge"><title>wim:e&#45;&gt;hdt_vmt:w</title>
<path fill="none" stroke="black" d="M232,-92C232,-92 302.613,-92 329.645,-92"/>
<polygon fill="black" stroke="black" points="330,-95.5001 340,-92 330,-88.5001 330,-95.5001"/>
</g>
<!-- hpms -->
<g id="node11" class="node"><title>hpms</title>
<polygon fill="lightgrey" stroke="black" points="16,-16 16,-52 232,-52 232,-16 16,-16"/>
<text text-anchor="middle" x="124" y="-30.7" font-family="Verdana" font-size="12.00">HPMS Data</text>
</g>
<!-- hpms&#45;&gt;hdt_vmt -->
<!-- slide:7 -->
<g id="edge48" class="edge"><title>hpms:e&#45;&gt;hdt_vmt:w</title>
<path fill="none" stroke="black" d="M232,-34C232,-34 305.368,-73.4015 331.162,-87.2536"/>
<polygon fill="black" stroke="black" points="329.534,-90.3522 340,-92 332.846,-84.1852 329.534,-90.3522"/>
</g>
<!-- RMPE -->
<!-- highlight:2 -->
<g id="node24" class="node"><title>RMPE</title>
<polygon fill="lightgrey" stroke="black" points="665,-538 665,-574 881,-574 881,-538 665,-538"/>
<text text-anchor="middle" x="773" y="-552.7" font-family="Verdana" font-size="12.00">RMPE</text>
</g>
<!-- ramp_perf&#45;&gt;RMPE -->
<!-- slide:2 -->
<g id="edge9" class="edge"><title>ramp_perf:e&#45;&gt;RMPE:w</title>
<path fill="none" stroke="black" d="M556,-556C556,-556 627.957,-556 654.941,-556"/>
<polygon fill="black" stroke="black" points="655,-559.5 665,-556 655,-552.5 655,-559.5"/>
</g>
<!-- CTMSim -->
<!-- highlight:3 -->
<g id="node25" class="node"><title>CTMSim</title>
<polygon fill="lightgrey" stroke="black" points="665,-480 665,-516 881,-516 881,-480 665,-480"/>
<text text-anchor="middle" x="773" y="-494.7" font-family="Verdana" font-size="12.00">CTMSim</text>
</g>
<!-- sec&#45;&gt;CTMSim -->
<!-- slide:3 -->
<g id="edge13" class="edge"><title>sec:e&#45;&gt;CTMSim:w</title>
<path fill="none" stroke="black" d="M556,-498C556,-498 627.957,-498 654.941,-498"/>
<polygon fill="black" stroke="black" points="655,-501.5 665,-498 655,-494.5 655,-501.5"/>
</g>
<!-- inc&#45;&gt;inc_delay -->
<!-- slide:4 -->
<g id="edge15" class="edge"><title>inc&#45;&gt;inc_delay</title>
<path fill="none" stroke="black" d="M448,-421.932C448,-418.07 448,-414.208 448,-410.347"/>
<polygon fill="black" stroke="black" points="451.5,-410.125 448,-400.125 444.5,-410.125 451.5,-410.125"/>
</g>
<!-- inc_delay&#45;&gt;tmc_impact -->
<!-- slide:4 -->
<g id="edge25" class="edge"><title>inc_delay&#45;&gt;tmc_impact</title>
<path fill="none" stroke="black" d="M448,-363.932C448,-360.07 448,-356.208 448,-352.347"/>
<polygon fill="black" stroke="black" points="451.5,-352.125 448,-342.125 444.5,-352.125 451.5,-352.125"/>
</g>
<!-- TMCPE -->
<!-- highlight:4 -->
<g id="node26" class="node"><title>TMCPE</title>
<polygon fill="lightgrey" stroke="black" points="665,-422 665,-458 881,-458 881,-422 665,-422"/>
<text text-anchor="middle" x="773" y="-436.7" font-family="Verdana" font-size="12.00">TMCPE</text>
</g>
<!-- inc_delay&#45;&gt;TMCPE -->
<!-- slide:4 -->
<g id="edge23" class="edge"><title>inc_delay:e&#45;&gt;TMCPE:w</title>
<path fill="none" stroke="black" d="M556,-382C556,-382 630.048,-421.402 656.08,-435.254"/>
<polygon fill="black" stroke="black" points="654.528,-438.392 665,-440 657.816,-432.213 654.528,-438.392"/>
</g>
<!-- tmc_impact&#45;&gt;TMCPE -->
<!-- slide:4 -->
<g id="edge29" class="edge"><title>tmc_impact:e&#45;&gt;TMCPE:w</title>
<path fill="none" stroke="black" d="M556,-324C556,-324 633.599,-406.582 657.848,-432.389"/>
<polygon fill="black" stroke="black" points="655.602,-435.109 665,-440 660.703,-430.316 655.602,-435.109"/>
</g>
<!-- ISPE -->
<!-- highlight:5 -->
<g id="node29" class="node"><title>ISPE</title>
<polygon fill="lightgrey" stroke="black" points="665,-248 665,-284 881,-284 881,-248 665,-248"/>
<text text-anchor="middle" x="773" y="-262.7" font-family="Verdana" font-size="12.00">ISPE</text>
</g>
<!-- sec_perf&#45;&gt;ISPE -->
<!-- slide:5 -->
<g id="edge32" class="edge"><title>sec_perf&#45;&gt;ISPE</title>
<path fill="none" stroke="black" d="M556.22,-266C587.795,-266 622.459,-266 654.626,-266"/>
<polygon fill="black" stroke="black" points="654.976,-269.5 664.975,-266 654.975,-262.5 654.976,-269.5"/>
</g>
<!-- ARA -->
<!-- highlight:6 -->
<g id="node30" class="node"><title>ARA</title>
<polygon fill="lightgrey" stroke="black" points="665,-190 665,-226 881,-226 881,-190 665,-190"/>
<text text-anchor="middle" x="773" y="-204.7" font-family="Verdana" font-size="12.00">ARA</text>
</g>
<!-- sec_time&#45;&gt;ARA -->
<!-- slide:6 -->
<g id="edge36" class="edge"><title>sec_time:e&#45;&gt;ARA:w</title>
<path fill="none" stroke="black" d="M556,-208C556,-208 627.957,-208 654.941,-208"/>
<polygon fill="black" stroke="black" points="655,-211.5 665,-208 655,-204.5 655,-211.5"/>
</g>
<!-- risk&#45;&gt;ARA -->
<!-- slide:6 -->
<g id="edge40" class="edge"><title>risk:e&#45;&gt;ARA:w</title>
<path fill="none" stroke="black" d="M556,-150C556,-150 630.048,-189.402 656.08,-203.254"/>
<polygon fill="black" stroke="black" points="654.528,-206.392 665,-208 657.816,-200.213 654.528,-206.392"/>
</g>
<!-- CalVAD -->
<!-- highlight:7 -->
<g id="node32" class="node"><title>CalVAD</title>
<polygon fill="lightgrey" stroke="black" points="665,-74 665,-110 881,-110 881,-74 665,-74"/>
<text text-anchor="middle" x="773" y="-88.7" font-family="Verdana" font-size="12.00">CalVAD</text>
</g>
<!-- hdt_vmt&#45;&gt;CalVAD -->
<!-- slide:7 -->
<g id="edge44" class="edge"><title>hdt_vmt:e&#45;&gt;CalVAD:w</title>
<path fill="none" stroke="black" d="M556,-92C556,-92 627.957,-92 654.941,-92"/>
<polygon fill="black" stroke="black" points="655,-95.5001 665,-92 655,-88.5001 655,-95.5001"/>
</g>
<!-- i4 -->
<g id="node22" class="node"><title>i4</title>
</g>
<!-- i1 -->
<g id="node27" class="node"><title>i1</title>
</g>
<!-- i2 -->
<g id="node28" class="node"><title>i2</title>
</g>
<!-- i6 -->
<g id="node31" class="node"><title>i6</title>
</g>
<!-- i5 -->
<g id="node33" class="node"><title>i5</title>
</g>
</g>
</svg>
